<?xml version="1.0" standalone="no"?><!DOCTYPE svg PUBLIC "-//W3C//DTD SVG 1.1//EN" "http://www.w3.org/Graphics/SVG/1.1/DTD/svg11.dtd"><svg t="1592134140344" class="icon" viewBox="0 0 1024 1024" version="1.1" xmlns="http://www.w3.org/2000/svg" p-id="3482" xmlns:xlink="http://www.w3.org/1999/xlink" width="200" height="200"><defs><style type="text/css"></style></defs><path d="M767.791 960H256.21c-94.18 0-170.528-76.348-170.528-170.527V472.779c0-94.18 76.348-170.528 170.528-170.528h511.58c94.18 0 170.528 76.348 170.528 170.528v316.694A170.527 170.527 0 0 1 767.79 960zM256.21 350.973c-67.271 0-121.806 54.534-121.806 121.806v316.694c0 67.27 54.535 121.805 121.806 121.805h511.58a121.805 121.805 0 0 0 121.806-121.805V472.779c0-67.272-54.535-121.806-121.806-121.806H256.21z m565.541 0a24.361 24.361 0 0 1-23.508-18.149l-57.614-214.62L234.77 253.772l17.784 66.018a24.361 24.361 0 1 1-47.017 12.18l-24.361-90.013a23.63 23.63 0 0 1 2.436-18.393 24.361 24.361 0 0 1 14.738-11.45L751.59 64.852c12.982-3.49 26.338 4.196 29.842 17.174l63.826 237.764a24.361 24.361 0 0 1-17.296 29.842 27.284 27.284 0 0 1-6.212 1.34z m86.116 401.958H786.062c-63.908 0-115.715-51.807-115.715-115.715S722.154 521.5 786.062 521.5h121.805c13.455 0 24.361 10.907 24.361 24.36 0 13.455-10.906 24.362-24.36 24.362H786.061c-36.996 0.004-66.985 29.997-66.985 66.993 0 36.996 29.989 66.989 66.985 66.993h121.805c13.455 0 24.361 10.907 24.361 24.36 0 13.455-10.906 24.362-24.36 24.362z" p-id="3483"></path></svg>